<svg width="184" height="211" viewBox="0 0 184 211" fill="none" xmlns="http://www.w3.org/2000/svg">
<circle cx="86.6695" cy="43.4586" r="35.6991" fill="black" stroke="white" stroke-width="3.56991"/>
<path d="M64.5446 86.0397C63.08 86.0397 61.6599 86.225 60.3059 86.5733C56.0482 86.5739 51.8141 88.8077 49.6227 93.1171L3.31079 184.192C0.0902445 190.525 2.67737 198.269 9.05808 201.394C15.372 204.487 22.9979 201.876 26.0908 195.562L49.0266 148.741L50.4102 192.463C50.6998 201.615 58.2025 208.884 67.3588 208.884H107.018C116.383 208.884 123.975 201.292 123.975 191.927V112.053C124.514 111.444 125.014 110.772 125.469 110.035L179.804 22.0123C183.502 16.0213 181.717 8.17191 175.792 4.369C169.792 0.518294 161.807 2.26024 157.957 8.25975L108.016 86.0686C107.686 86.0494 107.353 86.0397 107.018 86.0397H64.5446Z" fill="black" stroke="white" stroke-width="3.76824"/>
</svg>
